<?xml version="1.0" encoding="iso-8859-1"?>
<!-- Generator: Adobe Illustrator 19.0.0, SVG Export Plug-In . SVG Version: 6.00 Build 0)  -->
<svg xmlns="http://www.w3.org/2000/svg" xmlns:xlink="http://www.w3.org/1999/xlink" version="1.1" id="Layer_1" x="0px" y="0px" viewBox="0 0 512 512" style="enable-background:new 0 0 512 512;" xml:space="preserve" width="512" height="512">
<g>
	<g>
		<path style="fill:#6EE3FF;" d="M212.542,101.41c0-5.808-4.708-10.516-10.516-10.516h-22.426c-5.808,0-10.516,4.708-10.516,10.516    v29.815l19.847,15.468l23.611-15.468l21.729-20.166L212.542,101.41z"/>
		<path style="fill:#6EE3FF;" d="M299.459,101.41c0-5.808-4.708-10.516-10.516-10.516h-22.426c-5.808,0-10.516,4.708-10.516,10.516    l-21.729,9.649L256,131.225l19.847,15.468l23.611-15.468l21.729-20.166L299.459,101.41z"/>
		<path style="fill:#42C3E2;" d="M245.484,90.894h-22.426c-5.808,0-10.516,4.708-10.516,10.516v29.815l19.847,15.468L256,131.225    V101.41C256,95.602,251.292,90.894,245.484,90.894z"/>
		<path style="fill:#42C3E2;" d="M332.401,90.894h-22.426c-5.808,0-10.516,4.708-10.516,10.516v29.815l19.847,15.468l23.611-15.468    V101.41C342.918,95.602,338.209,90.894,332.401,90.894z"/>
		<path style="fill:#FADC60;" d="M412.948,17.418H99.052c-16.897,0-30.594,13.698-30.594,30.594v114.489h43.026V60.444h289.034    v102.058h43.026V48.012C443.543,31.115,429.845,17.418,412.948,17.418z"/>
		<g>
			<rect x="68.458" y="101.225" style="fill:#E6CB59;" width="43.026" height="61.276"/>
			<rect x="400.517" y="101.225" style="fill:#E6CB59;" width="43.026" height="61.276"/>
		</g>
		<path style="fill:#FF98C9;" d="M459.181,131.225H52.819c-25.031,0-45.319,20.288-45.319,45.309v288.514    c0,16.311,13.223,29.534,29.534,29.534h141.318L256,475.441l77.648,19.141h141.318c16.311,0,29.534-13.223,29.534-29.534V176.534    C504.5,151.513,484.212,131.225,459.181,131.225z"/>
		<g>
			<path style="fill:#EB6DA8;" d="M27.5,465.048V176.534c0-25.021,20.288-45.309,45.319-45.309h-20     c-25.031,0-45.319,20.288-45.319,45.309v288.514c0,16.311,13.223,29.534,29.534,29.534h20     C40.723,494.582,27.5,481.359,27.5,465.048z"/>
		</g>
		<rect x="54.79" y="163.169" style="fill:#6EE3FF;" width="402.421" height="78.37"/>
		<rect x="54.79" y="163.17" style="fill:#42C3E2;" width="30" height="78.37"/>
		<path style="fill:#EFEDEE;" d="M313.472,273.736H198.528c-4.686,0-8.484,3.798-8.484,8.484v17.59c0,4.686,3.798,8.484,8.484,8.484    h114.944c4.686,0,8.484-3.798,8.484-8.484v-17.59C321.956,277.534,318.158,273.736,313.472,273.736z"/>
		<path style="fill:#D4D2D3;" d="M220.045,299.81v-17.59c0-4.686,3.798-8.484,8.484-8.484h-30c-4.685,0-8.484,3.799-8.484,8.484    v17.59c0,4.686,3.798,8.484,8.484,8.484h30C223.843,308.294,220.045,304.495,220.045,299.81z"/>
		<circle style="fill:#FADC60;" cx="104.875" cy="348.815" r="67.808"/>
		<circle style="fill:#FD6F71;" cx="104.875" cy="348.815" r="38.01"/>
		<circle style="fill:#FADC60;" cx="407.126" cy="348.815" r="67.808"/>
		<circle style="fill:#FD6F71;" cx="407.126" cy="348.815" r="38.01"/>
		<path style="fill:#6EE3FF;" d="M333.649,423.053v71.529H178.352v-71.529c0-11.843,9.602-21.435,21.435-21.435h112.428    C324.047,401.619,333.649,411.21,333.649,423.053z"/>
		<path style="fill:#42C3E2;" d="M219.786,401.619h-20c-11.833,0-21.435,9.591-21.435,21.435v71.529h20v-71.529    C198.352,411.21,207.954,401.619,219.786,401.619z"/>
		<circle style="fill:#EFEDEE;" cx="220.769" cy="448.099" r="16.333"/>
		<circle style="fill:#EFEDEE;" cx="291.232" cy="448.099" r="16.333"/>
	</g>
	<g>
		<path d="M54.79,249.04H457.21c4.142,0,7.5-3.358,7.5-7.5v-78.371c0-4.142-3.358-7.5-7.5-7.5H141.209c-4.142,0-7.5,3.358-7.5,7.5    s3.358,7.5,7.5,7.5H449.71v63.371H62.29v-63.371h49.265c4.142,0,7.5-3.358,7.5-7.5s-3.358-7.5-7.5-7.5H54.79    c-4.142,0-7.5,3.358-7.5,7.5v78.371C47.29,245.682,50.647,249.04,54.79,249.04z"/>
		<path d="M313.472,266.236H198.528c-8.813,0-15.984,7.17-15.984,15.984v17.59c0,8.813,7.17,15.984,15.984,15.984h114.943    c8.813,0,15.984-7.171,15.984-15.984v-17.59C329.456,273.406,322.285,266.236,313.472,266.236z M314.456,299.81    c0,0.543-0.441,0.984-0.984,0.984H198.528c-0.542,0-0.984-0.441-0.984-0.984v-17.59c0-0.542,0.441-0.984,0.984-0.984h114.943    c0.542,0,0.984,0.441,0.984,0.984V299.81z"/>
		<path d="M188.001,205.54v-13.664c0-4.142-3.358-7.5-7.5-7.5s-7.5,3.358-7.5,7.5v13.664c0,4.142,3.358,7.5,7.5,7.5    S188.001,209.682,188.001,205.54z"/>
		<path d="M338.999,205.54v-13.664c0-4.142-3.358-7.5-7.5-7.5s-7.5,3.358-7.5,7.5v13.664c0,4.142,3.358,7.5,7.5,7.5    S338.999,209.682,338.999,205.54z"/>
		<path d="M256,220.333c9.427,0,18.277-3.939,24.281-10.808c2.726-3.119,2.408-7.857-0.711-10.583    c-3.119-2.726-7.856-2.408-10.583,0.711c-3.155,3.61-7.889,5.68-12.987,5.68s-9.832-2.07-12.987-5.68    c-2.726-3.119-7.464-3.437-10.583-0.711s-3.437,7.464-0.711,10.583C237.723,216.394,246.573,220.333,256,220.333z"/>
		<path d="M104.875,273.507c-41.525,0-75.308,33.783-75.308,75.308s33.783,75.308,75.308,75.308s75.308-33.783,75.308-75.308    S146.399,273.507,104.875,273.507z M104.875,409.123c-33.254,0-60.308-27.054-60.308-60.308s27.054-60.308,60.308-60.308    s60.308,27.054,60.308,60.308S138.128,409.123,104.875,409.123z"/>
		<path d="M104.875,303.305c-25.094,0-45.51,20.416-45.51,45.51s20.416,45.51,45.51,45.51s45.51-20.416,45.51-45.51    S129.969,303.305,104.875,303.305z M104.875,379.325c-16.823,0-30.51-13.687-30.51-30.51s13.687-30.51,30.51-30.51    s30.51,13.687,30.51,30.51S121.698,379.325,104.875,379.325z"/>
		<path d="M462.945,309.598c-3.629,1.998-4.951,6.559-2.954,10.187c4.869,8.844,7.442,18.883,7.442,29.03    c0,33.254-27.054,60.308-60.308,60.308s-60.308-27.054-60.308-60.308s27.054-60.308,60.308-60.308    c12.939,0,25.279,4.045,35.684,11.698c3.336,2.454,8.031,1.739,10.486-1.598c2.454-3.337,1.739-8.031-1.598-10.485    c-13-9.562-28.412-14.615-44.572-14.615c-41.525,0-75.308,33.783-75.308,75.308s33.783,75.308,75.308,75.308    s75.308-33.783,75.308-75.308c0-12.669-3.216-25.209-9.301-36.264C471.135,308.922,466.574,307.6,462.945,309.598z"/>
		<path d="M407.125,303.305c-25.094,0-45.51,20.416-45.51,45.51s20.416,45.51,45.51,45.51s45.51-20.416,45.51-45.51    S432.22,303.305,407.125,303.305z M407.125,379.325c-16.823,0-30.51-13.687-30.51-30.51s13.687-30.51,30.51-30.51    s30.51,13.687,30.51,30.51S423.949,379.325,407.125,379.325z"/>
		<path d="M220.769,424.266c-13.142,0-23.833,10.691-23.833,23.833s10.691,23.833,23.833,23.833s23.833-10.691,23.833-23.833    S233.91,424.266,220.769,424.266z M220.769,456.932c-4.871,0-8.833-3.962-8.833-8.833c0-4.87,3.962-8.833,8.833-8.833    s8.833,3.963,8.833,8.833C229.602,452.969,225.639,456.932,220.769,456.932z"/>
		<path d="M291.231,424.266c-13.142,0-23.833,10.691-23.833,23.833s10.691,23.833,23.833,23.833s23.833-10.691,23.833-23.833    S304.373,424.266,291.231,424.266z M291.231,456.932c-4.871,0-8.833-3.962-8.833-8.833c0-4.87,3.962-8.833,8.833-8.833    s8.833,3.963,8.833,8.833C300.064,452.969,296.102,456.932,291.231,456.932z"/>
		<path d="M512,176.534c0-29.119-23.695-52.809-52.819-52.809h-8.138V48.013c0-21.005-17.089-38.095-38.094-38.095H99.052    c-21.005,0-38.094,17.089-38.094,38.095v75.712h-8.138C23.695,123.725,0,147.415,0,176.534v288.514    c0,20.42,16.613,37.034,37.034,37.034h437.933c20.42,0,37.034-16.613,37.034-37.034V176.534z M75.958,48.013    c0-12.734,10.36-23.095,23.094-23.095h313.896c12.734,0,23.094,10.36,23.094,23.095v75.712h-28.025V60.443    c0-4.142-3.358-7.5-7.5-7.5H111.483c-4.142,0-7.5,3.358-7.5,7.5v63.282H75.958V48.013z M350.417,123.725v-22.314    c0-9.934-8.082-18.017-18.016-18.017h-22.426c-3.927,0-7.553,1.277-10.516,3.418c-2.963-2.141-6.59-3.418-10.517-3.418h-22.426    c-3.927,0-7.553,1.277-10.517,3.418c-2.963-2.141-6.59-3.418-10.517-3.418h-22.426c-3.927,0-7.553,1.277-10.517,3.418    c-2.963-2.141-6.589-3.418-10.516-3.418h-22.426c-9.935,0-18.017,8.083-18.017,18.017v22.314h-42.6V67.943h274.034v55.782H350.417    z M263.5,123.725v-22.314c0-1.664,1.353-3.017,3.017-3.017h22.426c1.664,0,3.017,1.353,3.017,3.017v22.314H263.5z     M220.041,123.725v-22.314c0-1.664,1.353-3.017,3.017-3.017h22.426c1.664,0,3.017,1.353,3.017,3.017v22.314H220.041z     M176.583,123.725v-22.314c0-1.664,1.353-3.017,3.017-3.017h22.426c1.663,0,3.016,1.353,3.016,3.017v22.314H176.583z     M306.959,101.411c0-1.664,1.353-3.017,3.016-3.017h22.426c1.663,0,3.016,1.353,3.016,3.017v22.314h-28.458V101.411z     M185.852,487.082v-64.029c0-7.684,6.251-13.935,13.935-13.935h112.428c7.684,0,13.935,6.251,13.935,13.935v64.029H185.852z     M497,465.048c0,12.149-9.884,22.034-22.034,22.034H341.148v-64.029c0-15.955-12.98-28.935-28.935-28.935H199.786    c-15.955,0-28.935,12.98-28.935,28.935v64.029H37.034c-12.149,0-22.034-9.884-22.034-22.034V176.534    c0-20.848,16.966-37.809,37.819-37.809h406.361c20.854,0,37.819,16.961,37.819,37.809V465.048z"/>
	</g>
</g>















</svg>
