<?xml version="1.0"?>
<svg xmlns="http://www.w3.org/2000/svg" xmlns:xlink="http://www.w3.org/1999/xlink" xmlns:svgjs="http://svgjs.com/svgjs" version="1.1" width="512" height="512" x="0" y="0" viewBox="0 0 512 512" style="enable-background:new 0 0 512 512" xml:space="preserve" class=""><g transform="matrix(0.85,0,0,0.85,38.39999728202821,38.400001859664854)"><linearGradient xmlns="http://www.w3.org/2000/svg" id="SVGID_1_" gradientUnits="userSpaceOnUse" x1="256" x2="256" y1="512" y2="0"><stop stop-opacity="1" stop-color="#fd3a84" offset="0"/><stop stop-opacity="0.99" stop-color="#49413e" offset="1"/></linearGradient><linearGradient xmlns="http://www.w3.org/2000/svg" id="lg1"><stop stop-opacity="1" stop-color="#ffc2cc" offset="0"/><stop stop-opacity="1" stop-color="#ffffff" offset="1"/></linearGradient><linearGradient xmlns="http://www.w3.org/2000/svg" xmlns:xlink="http://www.w3.org/1999/xlink" id="SVGID_2_" gradientUnits="userSpaceOnUse" x1="256" x2="256" xlink:href="#lg1" y1="301" y2="91"/><linearGradient xmlns="http://www.w3.org/2000/svg" xmlns:xlink="http://www.w3.org/1999/xlink" id="SVGID_3_" gradientUnits="userSpaceOnUse" x1="256" x2="256" xlink:href="#lg1" y1="421" y2="331"/><g xmlns="http://www.w3.org/2000/svg"><g><path d="m355.826 512h-199.651c-3.979 0-7.794-1.58-10.606-4.394l-141.175-141.174c-2.814-2.813-4.394-6.628-4.394-10.606v-199.652c0-3.978 1.58-7.793 4.394-10.606l141.174-141.174c2.813-2.814 6.628-4.394 10.607-4.394h199.651c3.979 0 7.794 1.581 10.606 4.394l141.174 141.174c2.813 2.813 4.394 6.628 4.394 10.606v199.651c0 3.978-1.58 7.793-4.394 10.606l-141.173 141.175c-2.813 2.813-6.628 4.394-10.607 4.394z" fill="url(#SVGID_1_)" data-original="url(#SVGID_1_)" style=""/></g><g id="Error"><g><path d="m256 301c-24.813 0-45-20.187-45-45v-120c0-24.813 20.187-45 45-45s45 20.187 45 45v120c0 24.813-20.187 45-45 45z" fill="url(#SVGID_2_)" data-original="url(#SVGID_2_)" style=""/></g><g><path d="m256 421c-24.813 0-45-20.187-45-45s20.187-45 45-45 45 20.187 45 45-20.187 45-45 45z" fill="url(#SVGID_3_)" data-original="url(#SVGID_3_)" style=""/></g></g></g></g></svg>
